<svg id="Capa_1" enable-background="new 0 0 508 508" height="60" viewBox="0 0 508 508" width="60" xmlns="http://www.w3.org/2000/svg"><g><path d="m498 184c5.522 0 10-4.477 10-10v-20c0-5.523-4.478-10-10-10-21.505 0-39-17.495-39-39 0-5.523-4.478-10-10-10h-20.306c-12.365-.758-15.403-14.403-9.231-20.605 3.896-3.915 3.905-10.237 0-14.142l-14.142-14.142c-4.321-3.82-9.987-4.156-14.143 0-9.314 9.314-23.286-4.661-14.142-14.142 4.544-4.711 2.931-10.84 0-14.143l-14.141-14.142c-4.153-3.845-9.895-4.168-14.143 0-15.349 15.06-39.948 15.207-55.153 0-3.905-3.905-10.237-3.905-14.143 0l-91.316 91.316h-129.14c-5.522 0-10 4.477-10 10 0 21.505-17.495 39-39 39-5.522 0-10 4.477-10 10v20c0 5.523 4.478 10 10 10 13.333 0 13.333 20 0 20-5.522 0-10 4.477-10 10v20c0 5.523 4.478 10 10 10 13.333 0 13.333 20 0 20-5.522 0-10 4.477-10 10v20c0 5.523 4.478 10 10 10 13.333 0 13.333 20 0 20-5.522 0-10 4.477-10 10v20c0 5.523 4.478 10 10 10 21.505 0 39 17.495 39 39 0 5.523 4.478 10 10 10h20.394c12.365.758 15.316 14.403 9.144 20.605-3.896 3.915-3.905 10.237 0 14.142l14.142 14.142c4.321 3.821 9.987 4.156 14.143 0 9.314-9.314 23.286 4.661 14.142 14.142-4.544 4.711-2.931 10.84 0 14.143l14.143 14.142c4.153 3.845 9.895 4.168 14.143 0 15.349-15.06 39.948-15.207 55.153 0 3.905 3.905 10.237 3.905 14.143 0l91.313-91.316h129.14c5.522 0 10-4.477 10-10 0-21.505 17.495-39 39-39 5.522 0 10-4.477 10-10v-20c0-5.523-4.478-10-10-10-13.173 0-13.173-20 0-20 5.522 0 10-4.477 10-10v-20c0-5.523-4.478-10-10-10-13.297 0-13.297-20 0-20 5.522 0 10-4.477 10-10v-20c0-5.523-4.478-10-10-10-13.273 0-13.273-20 0-20zm-210.88-159.695c19.041 13.018 45.622 15.728 68.11 0l1.805 1.805c-11.261 25.923 12.997 51.471 40.003 40.003l2.371 2.371c-4.91 10.146-3.676 19.436-.6 26.517h-29.452l-25.554-25.555c-21.383-21.025-53.512-20.058-73.539 0l-25.556 25.554h-28.283zm53.953 70.695h-68.08l11.413-11.413c13.239-12.426 32.303-12.135 45.254 0zm-120.193 388.695c-19.041-13.018-45.622-15.728-68.11 0l-1.805-1.805c11.261-25.923-12.997-51.471-40.003-40.003l-2.371-2.371c4.91-10.146 3.676-19.435.6-26.517h29.452l25.554 25.555c21.383 21.025 53.512 20.058 73.539 0l25.556-25.554h28.283zm-53.953-70.695h68.08l-11.413 11.413c-13.239 12.426-32.303 12.135-45.254 0zm321.073-247.287c-11.641 4.127-20 15.249-20 28.287s8.359 24.159 20 28.287v3.427c-11.641 4.127-20 15.249-20 28.287s8.359 24.159 20 28.287v3.427c-11.641 4.127-20 15.249-20 28.287s8.359 24.159 20 28.287v2.561c-24.537 4.206-43.946 23.616-48.152 48.152h-371.696c-4.206-24.539-23.615-43.948-48.152-48.154v-2.561c11.641-4.127 20-15.249 20-28.287s-8.359-24.159-20-28.287v-3.427c11.641-4.127 20-15.249 20-28.287s-8.359-24.159-20-28.287v-3.427c11.641-4.127 20-15.249 20-28.287s-8.359-24.159-20-28.287v-2.561c24.537-4.206 43.946-23.616 48.152-48.152h371.695c4.206 24.537 23.615 43.946 48.152 48.152v2.563zm-390.919 205.106c-21.426-6.424-37.081-26.329-37.081-49.819v-29.77c.006-13.257 20.006-13.247 20 .01v29.76c0 14.458 9.638 26.706 22.826 30.66 12.722 3.815 6.977 22.974-5.745 19.159zm-17.081-169.367c0 13.333-20 13.333-20 0v-14.452c0-27.143 22.129-52 52-52h45.76c5.523 0 10 4.477 10 10s-4.477 10-10 10h-45.76c-18.258 0-32 15.296-32 32zm368-14.452v134c0 28.673-23.327 52-52 52h-56.29c-5.522 0-10-4.477-10-10s4.478-10 10-10h56.29c17.645 0 32-14.355 32-32v-134c0-16.704-13.031-30.723-29.667-31.917-5.509-.396-9.653-5.182-9.259-10.69.396-5.509 5.174-9.656 10.69-9.259 27.049 1.941 48.236 24.723 48.236 51.866zm-368 59.24c0 5.523-4.477 10-10 10s-10-4.477-10-10 4.477-10 10-10 10 4.477 10 10zm268-101.246c0-6.286-5.731-11.007-11.903-9.811l-140.237 27.18c-4.702.911-8.097 5.028-8.097 9.817v129.281c-11.265-4.342-25.5-3.226-38.109 4.131-20.062 11.707-28.403 34.773-18.63 51.52s33.958 20.833 54.02 9.127c14.381-8.392 22.736-22.62 22.717-36.174 0-.001.002-108.87.002-108.87l120.237-23.303v73.898c-11.266-4.345-25.505-3.231-38.116 4.128-20.062 11.707-28.403 34.773-18.63 51.52s33.958 20.833 54.02 9.127c14.275-8.33 22.607-22.411 22.711-35.875.007-.018.013-117.17.015-155.696zm-173.039 203.963c-10.523 6.14-22.461 5.277-26.666-1.928-4.204-7.205.918-18.023 11.441-24.164s22.461-5.277 26.666 1.927c4.204 7.207-.918 18.025-11.441 24.165zm32.802-148.133v-20.395l120.237-23.305v20.396zm107.428 118.459c-10.523 6.14-22.461 5.277-26.666-1.928-4.204-7.205.918-18.023 11.441-24.164s22.461-5.277 26.666 1.927c4.204 7.206-.918 18.025-11.441 24.165z"/></g></svg>